<?xml version="1.0" encoding="utf-8"?>
<svg version="1.1" xmlns="http://www.w3.org/2000/svg" xmlns:xlink="http://www.w3.org/1999/xlink" width="96" height="96" viewBox="0 0 96 96">
  <g id="accessibility">
    <path d="M48 8c4.4 0 8 3.6 8 8s-3.6 8-8 8-8-3.6-8-8 3.6-8 8-8zM84 36h-24v52h-8v-24h-8v24h-8v-52h-24v-8h72v8z"></path>
  </g>
  <g id="add-circle">
  	<path d="M48 8c-22 0-40 18-40 40s18 40 40 40c22 0 40-18 40-40s-18-40-40-40zM68 52h-16v16h-8v-16h-16v-8h16v-16h8v16h16v8z"></path>
  </g>
</svg>
