<?xml version="1.0" encoding="utf-8"?>
<svg version="1.1" xmlns="http://www.w3.org/2000/svg" xmlns:xlink="http://www.w3.org/1999/xlink" width="96" height="96" viewBox="0 0 96 96">
  <g id="accessibility">
    <path d="M48 8c4.4 0 8 3.6 8 8s-3.6 8-8 8-8-3.6-8-8 3.6-8 8-8zM84 36h-24v52h-8v-24h-8v24h-8v-52h-24v-8h72v8z"></path>
  </g>
  <g id="add-circle">
  	<path d="M48 8c-22 0-40 18-40 40s18 40 40 40c22 0 40-18 40-40s-18-40-40-40zM68 52h-16v16h-8v-16h-16v-8h16v-16h8v16h16v8z"></path>
  </g>
  <g id="save">
    <path d="M68 12h-48c-4.4 0-8 3.6-8 8v56c0 4.4 3.6 8 8 8h56c4.4 0 8-3.6 8-8v-48l-16-16zM48 76c-6.8 0-12-5.2-12-12s5.2-12 12-12c6.8 0 12 5.2 12 12s-5.2 12-12 12zM60 36h-40v-16h40v16z"></path>
  </g>
  <g id="settings">
    <path d="M77.6 52c0-1.2 0.4-2.4 0.4-4s0-2.8-0.4-4l8.4-6.8c0.8-0.8 0.8-1.6 0.4-2.4l-8-14c-0.4-0.4-1.2-0.8-2.4-0.4l-10 4c-2-1.6-4.4-2.8-6.8-4l-1.6-10.4c0.4-1.2-0.8-2-1.6-2h-16c-0.8 0-2 0.8-2 1.6l-1.6 10.8c-2.4 0.8-4.4 2.4-6.8 4l-9.6-4c-1.2-0.4-2 0-2.8 0.8l-8 14c-0.4 0.4 0 1.6 0.8 2.4l8.4 6.4c0 1.2-0.4 2.4-0.4 4s0 2.8 0.4 4l-8.4 6.8c-0.8 0.8-0.8 1.6-0.4 2.4l8 14c0.4 0.4 1.2 0.8 2.4 0.4l10-4c2 1.6 4.4 2.8 6.8 4l1.6 10.4c0 0.8 0.8 1.6 2 1.6h16c0.8 0 2-0.8 2-1.6l1.6-10.4c2.4-1.2 4.8-2.4 6.8-4l10 4c0.8 0.4 2 0 2.4-0.8l8-14c0.4-0.8 0.4-2-0.4-2.4l-9.2-6.4zM48 62c-7.6 0-14-6.4-14-14s6.4-14 14-14 14 6.4 14 14-6.4 14-14 14z"></path>
  </g>
  <g id="delete">
    <path d="M24 76c0 4.4 3.6 8 8 8h32c4.4 0 8-3.6 8-8v-48h-48v48zM76 16h-14l-4-4h-20l-4 4h-14v8h56v-8z"></path>
  </g>
  <g id="clear">
    <path d="M76 25.6l-5.6-5.6-22.4 22.4-22.4-22.4-5.6 5.6 22.4 22.4-22.4 22.4 5.6 5.6 22.4-22.4 22.4 22.4 5.6-5.6-22.4-22.4z"></path>
  </g>
  <g id="check">
    <path d="M36 64.8l-16.8-16.8-5.6 5.6 22.4 22.4 48-48-5.6-5.6z"></path>
  </g>
  <g id="comments">
    <path d="M88 16c0-4.4-3.6-8-8-8h-64c-4.4 0-8 3.6-8 8v48c0 4.4 3.6 8 8 8h56l16 16v-72zM72 56h-48v-8h48v8zM72 44h-48v-8h48v8zM72 32h-48v-8h48v8z"></path>
  </g>
  <g id="view">
    <path d="M48 18c-20 0-37.2 12.4-44 30 6.8 17.6 24 30 44 30s37.2-12.4 44-30c-6.8-17.6-24-30-44-30zM48 68c-11.2 0-20-8.8-20-20s8.8-20 20-20c11.2 0 20 8.8 20 20s-8.8 20-20 20zM48 36c-6.8 0-12 5.2-12 12s5.2 12 12 12c6.8 0 12-5.2 12-12s-5.2-12-12-12z"></path>
  </g>
  <g id="comic">
    <path d="M48 22c3.2 0 6-2.8 6-6 0-1.2-0.4-2-0.8-3.2l-5.2-8.8-5.2 8.8c-0.4 0.8-0.8 2-0.8 3.2 0 3.2 2.8 6 6 6zM74 32h-22v-6h-8v6h-22c-10 0-18 8-18 18 0 6.4 3.2 11.6 8 14.8v27.2h72v-27.2c4.8-3.2 8-8.8 8-14.8 0-10-8-18-18-18zM74 60c-2.8 0-5.2-1.2-7.2-2.8l-6-6-6 6c-1.6 1.6-4 2.8-6.8 2.8s-5.2-1.2-7.2-2.8l-6-6-6 6c-1.6 1.6-4 2.8-6.8 2.8-5.6 0-10-4.4-10-10s4.4-10 10-10h52c5.6 0 10 4.4 10 10s-4.4 10-10 10z"></path>
  </g>
  <g id="rss">
    <path d="M84 12h-72c-4.4 0-8 3.6-8 8v12h8v-12h72v56h-28v8h28c4.4 0 8-3.6 8-8v-56c0-4.4-3.6-8-8-8zM4 72v12h12c0-6.8-5.2-12-12-12zM4 56v8c11.2 0 20 8.8 20 20h8c0-15.6-12.4-28-28-28zM4 40v8c20 0 36 16 36 36h8c0-24.4-19.6-44-44-44z"></path>
  </g>
  <g id="notes">
    <path d="M64 48v-32h4v-8h-40v8h4v32l-8 8v8h20.8v24h6.4v-24h20.8v-8l-8-8z"></path>
  </g>
</svg>
